<?xml version="1.0" standalone="no"?>
<!DOCTYPE svg PUBLIC "-//W3C//DTD SVG 20010904//EN"
 "http://www.w3.org/TR/2001/REC-SVG-20010904/DTD/svg10.dtd">
<svg version="1.0" xmlns="http://www.w3.org/2000/svg"
 width="512.000000pt" height="512.000000pt" viewBox="0 0 512.000000 512.000000"
 preserveAspectRatio="xMidYMid meet">

<g transform="translate(0.000000,512.000000) scale(0.100000,-0.100000)"
fill="#000000" stroke="none">
<path d="M115 4730 c-42 -13 -93 -65 -105 -109 -7 -24 -10 -185 -8 -472 l3
-436 29 -37 c75 -98 227 -83 277 28 17 37 19 71 19 373 l0 332 348 3 c345 3
347 3 380 26 39 28 72 89 72 133 0 48 -35 111 -77 139 l-37 25 -435 2 c-240 1
-450 -2 -466 -7z"/>
<path d="M4105 4730 c-62 -19 -115 -93 -115 -160 0 -43 33 -104 72 -132 33
-23 35 -23 381 -26 l347 -3 0 -332 c0 -325 1 -334 23 -377 29 -57 64 -82 124
-87 63 -7 112 14 149 63 l29 37 3 445 c3 428 2 446 -18 486 -11 22 -36 52 -57
66 l-37 25 -435 2 c-240 1 -449 -2 -466 -7z"/>
<path d="M702 4073 c-41 -20 -69 -55 -82 -103 -7 -25 -9 -510 -8 -1432 3
-1551 -3 -1428 70 -1480 l33 -23 1845 0 1845 0 33 23 c72 52 67 -46 67 1257 0
1309 6 1203 -71 1262 -74 56 -191 27 -234 -58 -20 -37 -20 -64 -20 -1104 l0
-1065 -1620 0 -1620 0 0 1210 0 1210 1734 2 1735 3 28 21 c89 67 89 202 1 266
l-33 23 -1835 2 c-1677 2 -1838 1 -1868 -14z"/>
<path d="M94 1496 c-17 -8 -44 -31 -60 -52 l-29 -37 -3 -436 c-2 -288 1 -448
8 -472 15 -52 77 -106 132 -114 24 -3 230 -5 459 -3 l415 3 37 25 c42 28 77
91 77 139 0 44 -33 105 -72 133 -33 23 -35 23 -380 26 l-348 3 0 332 c0 371
-3 390 -70 437 -41 29 -121 37 -166 16z"/>
<path d="M4885 1496 c-38 -17 -60 -41 -80 -89 -12 -30 -15 -92 -15 -366 l0
-330 -347 -3 c-346 -3 -348 -3 -381 -26 -39 -28 -72 -89 -72 -133 0 -48 35
-111 77 -139 l37 -25 415 -3 c229 -2 435 0 459 3 55 8 117 62 132 114 7 24 10
184 8 472 l-3 436 -29 37 c-47 62 -130 83 -201 52z"/>
</g>
</svg>
