<?xml version="1.0" standalone="no"?>
<!DOCTYPE svg PUBLIC "-//W3C//DTD SVG 20010904//EN"
 "http://www.w3.org/TR/2001/REC-SVG-20010904/DTD/svg10.dtd">
<svg version="1.0" xmlns="http://www.w3.org/2000/svg"
 width="256.000000pt" height="293.000000pt" viewBox="0 0 256.000000 293.000000"
 preserveAspectRatio="xMidYMid meet" fill="currentColor" >

<g transform="translate(0.000000,293.000000) scale(0.100000,-0.100000)" stroke="none">
<path d="M1600 2915 c-127 -25 -234 -78 -290 -142 -75 -85 -124 -250 -118
-399 l3 -79 105 1 c80 0 123 6 180 23 193 59 268 136 321 328 27 98 33 258 9
273 -21 13 -132 11 -210 -5z"/>
<path d="M560 2194 c-293 -57 -483 -314 -546 -736 -48 -327 52 -764 242 -1055
152 -234 352 -369 579 -391 109 -10 168 0 277 50 83 38 101 43 168 43 67 0 85
-5 168 -43 108 -49 168 -60 274 -50 169 16 320 92 449 225 176 180 289 418
355 740 48 240 41 460 -22 681 -102 355 -336 558 -622 538 -158 -11 -351 -64
-520 -141 l-82 -38 -78 36 c-101 48 -231 91 -348 117 -95 20 -247 33 -294 24z"/>
</g>
</svg>
