<?xml version="1.0" standalone="no"?>
<!DOCTYPE svg PUBLIC "-//W3C//DTD SVG 20010904//EN"
 "http://www.w3.org/TR/2001/REC-SVG-20010904/DTD/svg10.dtd">
<svg version="1.0" xmlns="http://www.w3.org/2000/svg"
 width="317.000000pt" height="230.000000pt" viewBox="0 0 317.000000 230.000000"
 preserveAspectRatio="xMidYMid meet" fill="currentColor">

<g transform="translate(0.000000,230.000000) scale(0.100000,-0.100000)"
 stroke="none">
<path d="M870 2121 c-106 -34 -180 -80 -259 -159 -125 -126 -180 -250 -188
-428 -7 -138 12 -231 69 -346 51 -101 99 -151 523 -534 175 -159 350 -317 387
-351 56 -52 73 -63 102 -63 41 0 32 -7 291 230 714 651 677 614 735 734 175
359 -6 797 -377 912 -73 23 -95 26 -195 22 -166 -6 -281 -54 -397 -166 l-55
-52 -51 49 c-68 66 -148 116 -238 146 -95 32 -259 35 -347 6z m310 -162 c71
-25 149 -79 195 -135 49 -60 86 -77 148 -71 44 4 55 10 120 74 82 80 113 102
177 127 253 100 532 -57 605 -339 42 -164 -6 -344 -125 -465 -108 -111 -785
-721 -796 -718 -18 4 -756 681 -814 746 -57 64 -96 152 -112 255 -21 137 33
304 131 405 133 137 300 180 471 121z"/>
</g>
</svg>
