<?xml version="1.0" encoding="utf-8"?>
<!-- Generator: Adobe Illustrator 22.1.0, SVG Export Plug-In . SVG Version: 6.00 Build 0)  -->
<svg version="1.1" id="Layer_1" xmlns="http://www.w3.org/2000/svg" xmlns:xlink="http://www.w3.org/1999/xlink" x="0px" y="0px"
	 viewBox="0 0 512 512" style="enable-background:new 0 0 512 512;" xml:space="preserve" fill="currentColor" >
<g>
	<path d="M227.7,145.9L166.9,44.7c-5.1-8.5-14.2-13.7-24.1-13.7H45.1c-11.4,0-18,12.8-11.5,22.1l97.8,139.7
		C157.5,168.4,190.7,151.7,227.7,145.9L227.7,145.9z M466.9,31h-97.7c-9.9,0-19,5.2-24.1,13.7l-60.8,101.3
		c36.9,5.8,70.2,22.5,96.3,46.9l97.8-139.7C485,43.8,478.3,31,466.9,31z M256,171.6c-85.4,0-154.7,69.3-154.7,154.7
		S170.6,481,256,481s154.7-69.3,154.7-154.7S341.4,171.6,256,171.6z M337.3,309.8L304,342.3l7.9,45.9c1.4,8.2-7.3,14.5-14.6,10.6
		L256,377.2l-41.2,21.7c-7.4,3.9-16-2.4-14.6-10.6l7.9-45.9l-33.3-32.5c-6-5.8-2.7-16,5.6-17.2l46.1-6.7l20.6-41.8
		c1.9-3.8,5.4-5.6,9-5.6c3.6,0,7.2,1.9,9.1,5.6l20.6,41.8l46.1,6.7C340,293.8,343.3,304,337.3,309.8z"/>
</g>
</svg>
