<?xml version="1.0" standalone="no"?>
<!DOCTYPE svg PUBLIC "-//W3C//DTD SVG 20010904//EN"
 "http://www.w3.org/TR/2001/REC-SVG-20010904/DTD/svg10.dtd">
<svg version="1.0" xmlns="http://www.w3.org/2000/svg"
 width="512.000000pt" height="512.000000pt" viewBox="0 0 512.000000 512.000000"
 preserveAspectRatio="xMidYMid meet" fill="currentColor">

<g transform="translate(0.000000,512.000000) scale(0.100000,-0.100000)"
 stroke="none">
<path d="M2490 3944 c-121 -21 -154 -30 -217 -55 -216 -90 -384 -287 -440
-517 -21 -88 -21 -256 0 -344 66 -272 283 -489 555 -555 88 -21 256 -21 344 0
272 66 489 283 555 555 21 88 21 256 0 344 -66 270 -286 492 -550 553 -67 15
-206 26 -247 19z"/>
<path d="M910 3394 c-177 -46 -335 -175 -415 -339 -47 -96 -65 -173 -65 -280
0 -115 20 -198 70 -295 52 -98 122 -176 215 -238 197 -132 442 -143 660 -29
67 36 209 171 238 228 l19 36 -45 69 c-134 207 -197 418 -197 657 l0 124 -67
31 c-38 16 -92 35 -121 41 -73 15 -226 13 -292 -5z"/>
<path d="M3901 3396 c-30 -8 -80 -26 -113 -42 l-58 -28 0 -117 c0 -244 -65
-462 -198 -663 l-45 -69 19 -36 c30 -58 172 -193 239 -228 218 -114 463 -103
660 29 100 66 167 144 220 253 55 113 69 186 63 318 -13 257 -174 471 -426
565 -55 20 -89 26 -187 28 -79 2 -139 -1 -174 -10z"/>
<path d="M2415 2024 c-199 -14 -451 -67 -618 -130 -344 -131 -577 -354 -616
-591 -7 -39 -11 -148 -9 -258 l3 -190 1385 0 1385 0 3 185 c1 102 -2 217 -8
255 -30 201 -207 403 -470 535 -161 81 -378 146 -585 174 -116 16 -368 26
-470 20z"/>
<path d="M835 1774 c-107 -20 -271 -67 -375 -110 -200 -81 -361 -211 -422
-340 l-33 -69 -3 -203 -3 -202 373 2 373 3 6 270 c5 239 8 279 28 345 28 94
81 205 126 264 19 26 35 48 35 51 0 7 -13 5 -105 -11z"/>
<path d="M4180 1785 c0 -3 16 -25 35 -51 45 -59 98 -170 126 -264 20 -66 23
-106 28 -345 l6 -270 373 -3 373 -2 -3 203 -3 203 -33 67 c-83 167 -273 300
-563 391 -61 20 -159 45 -216 56 -111 21 -123 23 -123 15z"/>
</g>
</svg>
