<?xml version="1.0" encoding="utf-8"?>
<!-- Generator: Adobe Illustrator 22.1.0, SVG Export Plug-In . SVG Version: 6.00 Build 0)  -->
<svg version="1.1" id="Layer_1" xmlns="http://www.w3.org/2000/svg" xmlns:xlink="http://www.w3.org/1999/xlink" x="0px" y="0px"
	 viewBox="0 0 448 512" style="enable-background:new 0 0 448 512;" xml:space="preserve" fill="currentColor">
<path d="M323.6,51.2c-20.8,19.3-39.6,39.6-56.2,60C240.1,73.6,206.3,35.5,168,0C69.7,91.2,0,210,0,281.6C0,408.9,100.3,512,224,512
	s224-103.1,224-230.4C448,228.3,396,118.5,323.6,51.2L323.6,51.2z M304.1,391.9C282.4,407,255.7,416,226.9,416
	C154.7,416,96,368.3,96,290.8c0-38.6,24.3-72.6,72.8-130.8c6.9,8,98.8,125.3,98.8,125.3l58.6-66.9c4.1,6.9,7.9,13.6,11.3,20
	C364.9,290.6,353.3,357.4,304.1,391.9L304.1,391.9z"/>
</svg>
