<?xml version="1.0" standalone="no"?>
<!DOCTYPE svg PUBLIC "-//W3C//DTD SVG 20010904//EN"
 "http://www.w3.org/TR/2001/REC-SVG-20010904/DTD/svg10.dtd">
<svg version="1.0" xmlns="http://www.w3.org/2000/svg"
 width="512.000000pt" height="512.000000pt" viewBox="0 0 512.000000 512.000000"
 preserveAspectRatio="xMidYMid meet">

<g transform="translate(0.000000,512.000000) scale(0.100000,-0.100000)"
fill="#02c46e" stroke="none">
<path d="M2659 4743 c-52 -9 -132 -66 -164 -117 l-30 -49 -5 -436 -5 -436 -40
-2 c-466 -29 -952 -211 -1340 -502 -122 -93 -331 -294 -430 -416 -291 -358
-478 -798 -540 -1268 -20 -154 -20 -459 0 -614 17 -128 55 -309 87 -412 32
-105 92 -143 175 -115 51 18 65 37 102 146 18 51 63 156 101 234 331 681 980
1147 1740 1250 58 7 115 14 128 14 l22 0 0 -445 c0 -483 0 -478 56 -552 62
-81 202 -111 295 -62 25 13 522 404 1103 868 1163 929 1107 879 1114 998 6 85
-16 139 -76 195 -87 80 -2092 1673 -2135 1695 -43 23 -111 35 -158 26z m1081
-1069 c567 -448 1030 -819 1030 -824 0 -5 -460 -380 -1022 -835 l-1023 -826
-5 498 c-5 548 -4 535 -68 575 -32 20 -43 21 -166 15 -855 -39 -1627 -506
-2066 -1251 l-58 -99 -8 49 c-15 88 -9 410 10 539 133 912 785 1640 1671 1865
161 41 363 70 488 70 89 0 134 15 167 56 l23 29 -7 478 c-4 262 -5 477 -1 477
3 0 469 -367 1035 -816z"/>
</g>
</svg>
